<mxfile host="app.diagrams.net" agent="Mozilla/5.0 (X11; Linux x86_64; rv:140.0) Gecko/20100101 Firefox/140.0" version="28.0.9">
  <diagram name="Page-1" id="wvD0TGrOcVfHGswCKrwI">
    <mxGraphModel dx="543" dy="346" grid="1" gridSize="10" guides="1" tooltips="1" connect="1" arrows="1" fold="1" page="1" pageScale="1" pageWidth="850" pageHeight="1100" math="0" shadow="0">
      <root>
        <mxCell id="0" />
        <mxCell id="1" parent="0" />
        <mxCell id="g_UbJDUyzVjHQ7WcR6PP-4" value="" style="rounded=1;whiteSpace=wrap;html=1;fillColor=none;strokeColor=light-dark(#B46504,#FF1F57);" vertex="1" parent="1">
          <mxGeometry x="150" y="160" width="250" height="80" as="geometry" />
        </mxCell>
        <mxCell id="g_UbJDUyzVjHQ7WcR6PP-1" value="OSPF Area 0&amp;nbsp;" style="text;html=1;align=center;verticalAlign=middle;whiteSpace=wrap;rounded=0;" vertex="1" parent="1">
          <mxGeometry x="235" y="160" width="80" height="30" as="geometry" />
        </mxCell>
        <mxCell id="g_UbJDUyzVjHQ7WcR6PP-2" value="&lt;div&gt;CRS326&lt;/div&gt;&lt;div&gt;RID 172.16.0.1&lt;/div&gt;" style="rounded=1;whiteSpace=wrap;html=1;fillColor=light-dark(#000000,#1A1A1A);strokeColor=light-dark(#B46504,#140007);glass=0;" vertex="1" parent="1">
          <mxGeometry x="40" y="170" width="120" height="60" as="geometry" />
        </mxCell>
        <mxCell id="g_UbJDUyzVjHQ7WcR6PP-3" value="&lt;div&gt;CCR2004&lt;/div&gt;&lt;div&gt;RID 172.16.0.1&lt;/div&gt;" style="rounded=1;whiteSpace=wrap;html=1;glass=0;fillColor=light-dark(#000000,#1A1A1A);strokeColor=light-dark(#B46504,#140007);" vertex="1" parent="1">
          <mxGeometry x="390" y="170" width="120" height="60" as="geometry" />
        </mxCell>
        <mxCell id="g_UbJDUyzVjHQ7WcR6PP-5" value="" style="endArrow=none;html=1;rounded=0;entryX=0;entryY=0.5;entryDx=0;entryDy=0;exitX=1;exitY=0.5;exitDx=0;exitDy=0;strokeWidth=2;" edge="1" parent="1" source="g_UbJDUyzVjHQ7WcR6PP-2" target="g_UbJDUyzVjHQ7WcR6PP-3">
          <mxGeometry width="50" height="50" relative="1" as="geometry">
            <mxPoint x="310" y="320" as="sourcePoint" />
            <mxPoint x="360" y="270" as="targetPoint" />
          </mxGeometry>
        </mxCell>
        <mxCell id="g_UbJDUyzVjHQ7WcR6PP-6" value="&lt;pre&gt;&lt;font size=&quot;1&quot;&gt;inter-router-link0&lt;/font&gt;&lt;/pre&gt;" style="text;html=1;align=center;verticalAlign=middle;whiteSpace=wrap;rounded=0;" vertex="1" parent="1">
          <mxGeometry x="230" y="200" width="90" height="20" as="geometry" />
        </mxCell>
        <mxCell id="g_UbJDUyzVjHQ7WcR6PP-9" value="&lt;div&gt;SVI 20&lt;/div&gt;&lt;div&gt;10.1.2.1/27&lt;/div&gt;" style="rounded=1;whiteSpace=wrap;html=1;fillColor=light-dark(#000000,#1A1A1A);strokeColor=light-dark(#000000,#000099);glass=0;" vertex="1" parent="1">
          <mxGeometry x="10" y="250" width="70" height="40" as="geometry" />
        </mxCell>
        <mxCell id="g_UbJDUyzVjHQ7WcR6PP-10" value="" style="endArrow=none;html=1;rounded=0;entryX=0.25;entryY=1;entryDx=0;entryDy=0;exitX=0.5;exitY=0;exitDx=0;exitDy=0;strokeWidth=2;strokeColor=light-dark(#000000,#FF643A);" edge="1" parent="1" source="g_UbJDUyzVjHQ7WcR6PP-9" target="g_UbJDUyzVjHQ7WcR6PP-2">
          <mxGeometry width="50" height="50" relative="1" as="geometry">
            <mxPoint x="310" y="320" as="sourcePoint" />
            <mxPoint x="360" y="270" as="targetPoint" />
          </mxGeometry>
        </mxCell>
        <mxCell id="g_UbJDUyzVjHQ7WcR6PP-11" value="&lt;div&gt;SVI 40&lt;/div&gt;&lt;div&gt;10.1.4.1/24&lt;/div&gt;" style="rounded=1;whiteSpace=wrap;html=1;fillColor=light-dark(#000000,#1A1A1A);strokeColor=light-dark(#000000,#000099);glass=0;" vertex="1" parent="1">
          <mxGeometry x="10" y="300" width="70" height="40" as="geometry" />
        </mxCell>
        <mxCell id="g_UbJDUyzVjHQ7WcR6PP-12" value="" style="endArrow=none;html=1;rounded=0;entryX=0.5;entryY=1;entryDx=0;entryDy=0;exitX=1;exitY=0.5;exitDx=0;exitDy=0;strokeWidth=2;strokeColor=light-dark(#000000,#FF643A);" edge="1" parent="1" source="g_UbJDUyzVjHQ7WcR6PP-11" target="g_UbJDUyzVjHQ7WcR6PP-2">
          <mxGeometry width="50" height="50" relative="1" as="geometry">
            <mxPoint x="400" y="320" as="sourcePoint" />
            <mxPoint x="60" y="189.9999999999999" as="targetPoint" />
            <Array as="points">
              <mxPoint x="100" y="320" />
            </Array>
          </mxGeometry>
        </mxCell>
        <mxCell id="g_UbJDUyzVjHQ7WcR6PP-14" value="" style="endArrow=none;html=1;rounded=0;entryX=0.75;entryY=1;entryDx=0;entryDy=0;exitX=0.25;exitY=0;exitDx=0;exitDy=0;strokeWidth=2;strokeColor=light-dark(#000000,#FF643A);" edge="1" parent="1" source="g_UbJDUyzVjHQ7WcR6PP-22" target="g_UbJDUyzVjHQ7WcR6PP-19">
          <mxGeometry width="50" height="50" relative="1" as="geometry">
            <mxPoint x="475" y="250" as="sourcePoint" />
            <mxPoint x="110" y="230" as="targetPoint" />
          </mxGeometry>
        </mxCell>
        <mxCell id="g_UbJDUyzVjHQ7WcR6PP-15" value="&lt;div style=&quot;line-height: 60%;&quot;&gt;&lt;pre align=&quot;left&quot;&gt;Advertises:&lt;/pre&gt;&lt;pre align=&quot;left&quot;&gt;10.1.2.0/27&lt;/pre&gt;&lt;pre align=&quot;left&quot;&gt;10.1.4.0/24&lt;/pre&gt;&lt;/div&gt;" style="text;html=1;align=left;verticalAlign=middle;whiteSpace=wrap;rounded=0;" vertex="1" parent="1">
          <mxGeometry x="10" y="110" width="80" height="60" as="geometry" />
        </mxCell>
        <mxCell id="g_UbJDUyzVjHQ7WcR6PP-16" value="&lt;div style=&quot;line-height: 60%;&quot;&gt;&lt;pre align=&quot;left&quot;&gt;Advertises:&lt;/pre&gt;&lt;pre align=&quot;left&quot;&gt;10.1.3.0/24&lt;/pre&gt;&lt;/div&gt;" style="text;html=1;align=left;verticalAlign=middle;whiteSpace=wrap;rounded=0;" vertex="1" parent="1">
          <mxGeometry x="425" y="110" width="80" height="60" as="geometry" />
        </mxCell>
        <mxCell id="g_UbJDUyzVjHQ7WcR6PP-17" value="&lt;div&gt;&lt;span style=&quot;color: light-dark(rgb(255, 255, 255), rgb(255, 134, 44));&quot;&gt;CRS326 - Mgmt&lt;/span&gt;&lt;/div&gt;&lt;div&gt;&lt;span style=&quot;color: light-dark(rgb(255, 255, 255), rgb(255, 134, 44));&quot;&gt;SVI&lt;/span&gt;&lt;/div&gt;" style="rounded=1;whiteSpace=wrap;html=1;fillColor=light-dark(#FFFFFF,#1A1A1A);strokeColor=light-dark(#FFFFFF,#FF862C);strokeWidth=2;" vertex="1" parent="1">
          <mxGeometry x="110" y="260" width="90" height="40" as="geometry" />
        </mxCell>
        <mxCell id="g_UbJDUyzVjHQ7WcR6PP-18" value="&lt;div&gt;CRS326&lt;/div&gt;&lt;div&gt;RID 172.16.0.1&lt;/div&gt;" style="rounded=1;whiteSpace=wrap;html=1;fillColor=light-dark(#000000,#1A1A1A);strokeColor=light-dark(#B46504,#FF1F57);glass=0;" vertex="1" parent="1">
          <mxGeometry x="40" y="170" width="120" height="60" as="geometry" />
        </mxCell>
        <mxCell id="g_UbJDUyzVjHQ7WcR6PP-19" value="&lt;div&gt;CCR2004&lt;/div&gt;&lt;div&gt;RID 172.16.0.1&lt;/div&gt;" style="rounded=1;whiteSpace=wrap;html=1;glass=0;fillColor=light-dark(#000000,#1A1A1A);strokeColor=light-dark(#B46504,#FF1F57);" vertex="1" parent="1">
          <mxGeometry x="390" y="170" width="120" height="60" as="geometry" />
        </mxCell>
        <mxCell id="g_UbJDUyzVjHQ7WcR6PP-7" value="&lt;pre&gt;&lt;font style=&quot;font-size: 9px;&quot;&gt;172.16.255.2&lt;/font&gt;&lt;/pre&gt;" style="text;html=1;align=center;verticalAlign=middle;whiteSpace=wrap;rounded=0;" vertex="1" parent="1">
          <mxGeometry x="150" y="180" width="80" height="20" as="geometry" />
        </mxCell>
        <mxCell id="g_UbJDUyzVjHQ7WcR6PP-8" value="&lt;pre&gt;&lt;font style=&quot;font-size: 9px;&quot;&gt;172.16.255.1&lt;/font&gt;&lt;/pre&gt;" style="text;html=1;align=center;verticalAlign=middle;whiteSpace=wrap;rounded=0;" vertex="1" parent="1">
          <mxGeometry x="315" y="180" width="80" height="20" as="geometry" />
        </mxCell>
        <mxCell id="g_UbJDUyzVjHQ7WcR6PP-20" value="&lt;div&gt;SVI 20&lt;/div&gt;&lt;div&gt;10.1.2.1/27&lt;/div&gt;" style="rounded=1;whiteSpace=wrap;html=1;fillColor=light-dark(#000000,#1A1A1A);strokeColor=light-dark(#000000,#FF643A);glass=0;" vertex="1" parent="1">
          <mxGeometry x="10" y="250" width="70" height="40" as="geometry" />
        </mxCell>
        <mxCell id="g_UbJDUyzVjHQ7WcR6PP-21" value="&lt;div&gt;SVI 40&lt;/div&gt;&lt;div&gt;10.1.4.1/24&lt;/div&gt;" style="rounded=1;whiteSpace=wrap;html=1;fillColor=light-dark(#000000,#1A1A1A);strokeColor=light-dark(#000000,#FF643A);glass=0;" vertex="1" parent="1">
          <mxGeometry x="10" y="300" width="70" height="40" as="geometry" />
        </mxCell>
        <mxCell id="g_UbJDUyzVjHQ7WcR6PP-22" value="&lt;div&gt;SVI 30&lt;/div&gt;&lt;div&gt;10.1.3.1/24&lt;/div&gt;" style="rounded=1;whiteSpace=wrap;html=1;fillColor=light-dark(#000000,#1A1A1A);strokeColor=light-dark(#000000,#FF643A);glass=0;" vertex="1" parent="1">
          <mxGeometry x="505" y="250" width="70" height="40" as="geometry" />
        </mxCell>
        <mxCell id="g_UbJDUyzVjHQ7WcR6PP-23" value="" style="endArrow=none;html=1;rounded=0;entryX=0.75;entryY=1;entryDx=0;entryDy=0;exitX=0.25;exitY=0;exitDx=0;exitDy=0;strokeColor=light-dark(#FFFFFF,#FF862C);strokeWidth=2;" edge="1" parent="1" source="g_UbJDUyzVjHQ7WcR6PP-17" target="g_UbJDUyzVjHQ7WcR6PP-18">
          <mxGeometry width="50" height="50" relative="1" as="geometry">
            <mxPoint x="360" y="320" as="sourcePoint" />
            <mxPoint x="410" y="270" as="targetPoint" />
          </mxGeometry>
        </mxCell>
        <mxCell id="g_UbJDUyzVjHQ7WcR6PP-24" value="" style="endArrow=none;html=1;rounded=0;entryX=0;entryY=0.75;entryDx=0;entryDy=0;exitX=0.75;exitY=1;exitDx=0;exitDy=0;strokeColor=light-dark(#FFFFFF,#FF862C);strokeWidth=2;" edge="1" parent="1" source="g_UbJDUyzVjHQ7WcR6PP-18" target="g_UbJDUyzVjHQ7WcR6PP-19">
          <mxGeometry width="50" height="50" relative="1" as="geometry">
            <mxPoint x="133" y="270" as="sourcePoint" />
            <mxPoint x="130" y="240" as="targetPoint" />
            <Array as="points">
              <mxPoint x="130" y="215" />
              <mxPoint x="170" y="215" />
              <mxPoint x="170" y="230" />
              <mxPoint x="380" y="230" />
              <mxPoint x="380" y="215" />
            </Array>
          </mxGeometry>
        </mxCell>
        <mxCell id="g_UbJDUyzVjHQ7WcR6PP-25" value="&lt;div&gt;&lt;span style=&quot;color: light-dark(rgb(255, 255, 255), rgb(255, 134, 44));&quot;&gt;CCR2004 - Mgmt&lt;/span&gt;&lt;/div&gt;&lt;div&gt;&lt;span style=&quot;color: light-dark(rgb(255, 255, 255), rgb(255, 134, 44));&quot;&gt;SVI&lt;/span&gt;&lt;/div&gt;" style="rounded=1;whiteSpace=wrap;html=1;fillColor=light-dark(#FFFFFF,#1A1A1A);strokeColor=light-dark(#FFFFFF,#FF862C);strokeWidth=2;" vertex="1" parent="1">
          <mxGeometry x="373" y="250" width="105" height="40" as="geometry" />
        </mxCell>
        <mxCell id="g_UbJDUyzVjHQ7WcR6PP-26" value="" style="endArrow=none;html=1;rounded=0;entryX=0.5;entryY=1;entryDx=0;entryDy=0;exitX=0.75;exitY=0;exitDx=0;exitDy=0;strokeColor=light-dark(#FFFFFF,#FF862C);strokeWidth=2;" edge="1" parent="1" source="g_UbJDUyzVjHQ7WcR6PP-25" target="g_UbJDUyzVjHQ7WcR6PP-19">
          <mxGeometry width="50" height="50" relative="1" as="geometry">
            <mxPoint x="133" y="270" as="sourcePoint" />
            <mxPoint x="130" y="240" as="targetPoint" />
          </mxGeometry>
        </mxCell>
        <mxCell id="g_UbJDUyzVjHQ7WcR6PP-28" value="" style="endArrow=none;html=1;rounded=0;entryX=0;entryY=0.75;entryDx=0;entryDy=0;exitX=0.5;exitY=1;exitDx=0;exitDy=0;strokeColor=light-dark(#FFFFFF,#FF862C);strokeWidth=2;" edge="1" parent="1" source="g_UbJDUyzVjHQ7WcR6PP-19" target="g_UbJDUyzVjHQ7WcR6PP-19">
          <mxGeometry width="50" height="50" relative="1" as="geometry">
            <mxPoint x="442" y="250" as="sourcePoint" />
            <mxPoint x="440" y="230" as="targetPoint" />
            <Array as="points">
              <mxPoint x="450" y="215" />
            </Array>
          </mxGeometry>
        </mxCell>
        <mxCell id="g_UbJDUyzVjHQ7WcR6PP-29" value="&lt;div style=&quot;line-height: 100%;&quot;&gt;&lt;div&gt;&lt;font style=&quot;font-size: 10px; line-height: 100%;&quot;&gt;Static route for management&lt;/font&gt;&lt;/div&gt;&lt;div&gt;&lt;font style=&quot;font-size: 10px; line-height: 100%;&quot;&gt;Not advertised by OSPF&lt;/font&gt;&lt;/div&gt;&lt;/div&gt;" style="text;html=1;align=center;verticalAlign=middle;whiteSpace=wrap;rounded=0;fontColor=light-dark(#FFFFFF,#FF862C);" vertex="1" parent="1">
          <mxGeometry x="283" y="255" width="90" height="50" as="geometry" />
        </mxCell>
        <mxCell id="g_UbJDUyzVjHQ7WcR6PP-30" value="" style="endArrow=openThin;html=1;rounded=0;endFill=0;strokeWidth=2;" edge="1" parent="1">
          <mxGeometry width="50" height="50" relative="1" as="geometry">
            <mxPoint x="290" y="270" as="sourcePoint" />
            <mxPoint x="250" y="230" as="targetPoint" />
          </mxGeometry>
        </mxCell>
      </root>
    </mxGraphModel>
  </diagram>
</mxfile>
